<?xml version="1.0" standalone="no"?>
<!DOCTYPE svg PUBLIC "-//W3C//DTD SVG 20010904//EN"
 "http://www.w3.org/TR/2001/REC-SVG-20010904/DTD/svg10.dtd">
<svg version="1.0" xmlns="http://www.w3.org/2000/svg"
 width="260.000000pt" height="260.000000pt" viewBox="0 0 260.000000 260.000000"
 preserveAspectRatio="xMidYMid meet">
<metadata>
Created by potrace 1.11, written by Peter Selinger 2001-2013
</metadata>
<g transform="translate(0.000000,260.000000) scale(0.100000,-0.100000)"
fill="#000000" stroke="none">
<path d="M1299 2301 c-16 -16 -29 -40 -29 -54 0 -22 -4 -24 -45 -25 -50 0 -87
-19 -122 -60 -18 -22 -29 -26 -65 -24 -80 5 -157 -69 -136 -129 16 -46 71 -82
133 -87 l53 -4 33 -86 c18 -47 34 -91 35 -97 1 -5 16 -46 34 -90 24 -60 29
-84 21 -96 -15 -24 35 -149 60 -149 45 0 65 18 93 87 15 37 42 100 58 138 56
129 59 137 49 130 -6 -3 -11 -4 -11 -2 0 15 80 181 86 179 4 -2 18 16 31 41
18 36 27 44 43 40 46 -12 11 47 -37 61 -13 4 -23 14 -23 23 0 20 -64 83 -84
83 -12 0 -14 7 -10 30 20 96 -98 159 -167 91z"/>
<path d="M1131 1212 c-63 -92 -222 -321 -353 -510 -132 -189 -241 -349 -244
-357 -17 -43 281 -71 423 -40 94 21 201 68 283 126 l60 42 60 -42 c149 -105
295 -147 484 -138 106 4 226 27 226 43 0 2 -115 170 -255 372 -140 202 -289
418 -332 481 -143 208 -130 195 -159 176 -23 -15 -28 -15 -49 -1 -14 9 -26 16
-27 16 -2 -1 -54 -76 -117 -168z"/>
</g>
</svg>
